<?xml version="1.0" encoding="utf-8"?>
<!-- Generator: Adobe Illustrator 17.1.0, SVG Export Plug-In . SVG Version: 6.00 Build 0)  -->
<!DOCTYPE svg PUBLIC "-//W3C//DTD SVG 1.1//EN" "http://www.w3.org/Graphics/SVG/1.1/DTD/svg11.dtd">
<svg version="1.1" id="Layer_1" xmlns="http://www.w3.org/2000/svg" xmlns:xlink="http://www.w3.org/1999/xlink" x="0px" y="0px"
	 viewBox="0 0 33.3 31.8" enable-background="new 0 0 33.3 31.8" xml:space="preserve">
<g id="shopping-basket_1_">
	<g>
		<path fill="#FFB100" d="M31.3,14.4c-0.1-0.1-0.3-0.2-0.4-0.2H2.4c-0.2,0-0.3,0.1-0.4,0.2c-0.1,0.1-0.1,0.3-0.1,0.5l4.8,14.6
			c0.1,0.2,0.3,0.4,0.5,0.4h18.8c0.2,0,0.4-0.1,0.5-0.4l4.8-14.6C31.5,14.7,31.4,14.5,31.3,14.4z M21.7,23.8h-4.5v-4.1h5.2
			L21.7,23.8z M23.5,19.7h5.2l-1.3,4.1h-4.6L23.5,19.7z M4.6,19.7h5.2l0.7,4.1H6L4.6,19.7z M10.9,19.7h5.2v4.1h-4.5L10.9,19.7z
			 M10.7,18.6l-0.6-3.4h6v3.4H10.7z M16.1,24.9v3.9h-3.6l-0.7-3.9H16.1z M17.2,24.9h4.3l-0.7,3.9h-3.6L17.2,24.9L17.2,24.9z
			 M17.2,18.6v-3.4h6l-0.6,3.4H17.2z M9,15.2l0.6,3.4H4.3l-1.1-3.4C3.1,15.2,9,15.2,9,15.2z M6.3,24.9h4.4l0.7,3.9H7.6L6.3,24.9z
			 M25.7,28.8h-3.8l0.7-3.9H27L25.7,28.8z M29,18.6h-5.4l0.6-3.4h5.9L29,18.6z"/>
		<path fill="#FFB100" d="M7.4,13.6l6.1-7.7C13.7,6,13.9,6,14.1,6c1.1,0,2.1-0.9,2.1-2.1c0-1.1-0.9-2.1-2.1-2.1s-2.1,0.9-2.1,2.1
			c0,0.5,0.2,1,0.5,1.4l-6.1,7.6L7.4,13.6z M14.1,3c0.5,0,1,0.4,1,1c0,0.5-0.4,1-1,1c-0.5,0-1-0.4-1-1C13.2,3.4,13.6,3,14.1,3z"/>
		<path fill="#FFB100" d="M19.2,6c0.2,0,0.5,0,0.7-0.1l5.7,7.7l0.9-0.6l-5.7-7.7c0.3-0.4,0.5-0.8,0.5-1.3c0-1.1-0.9-2.1-2.1-2.1
			c-1.1,0-2.1,0.9-2.1,2.1C17.1,5.1,18,6,19.2,6z M19.2,3c0.5,0,1,0.4,1,1c0,0.5-0.4,1-1,1c-0.5,0-1-0.4-1-1C18.2,3.4,18.6,3,19.2,3
			z"/>
	</g>
</g>
</svg>
