<?xml version="1.0" encoding="utf-8"?>
<!-- Generator: Adobe Illustrator 17.1.0, SVG Export Plug-In . SVG Version: 6.00 Build 0)  -->
<!DOCTYPE svg PUBLIC "-//W3C//DTD SVG 1.1//EN" "http://www.w3.org/Graphics/SVG/1.1/DTD/svg11.dtd">
<svg version="1.1" id="Layer_1" xmlns="http://www.w3.org/2000/svg" xmlns:xlink="http://www.w3.org/1999/xlink" x="0px" y="0px"
	 viewBox="0 0 36.8 35.8" enable-background="new 0 0 36.8 35.8" xml:space="preserve">
<path id="TIME_2_" fill-rule="evenodd" clip-rule="evenodd" fill="#8CC63F" d="M26.5,34.8c-4.1,0-7.4-3.3-7.4-7.4s3.3-7.4,7.4-7.4
	c4.1,0,7.4,3.3,7.4,7.4S30.6,34.8,26.5,34.8z M26.5,21.3c-3.3,0-6,2.7-6,6c0,3.3,2.7,6,6,6c3.3,0,6-2.7,6-6
	C32.5,24,29.8,21.3,26.5,21.3z M29.5,28h-1.4h-0.9h-0.7h0c-0.4,0-0.7-0.3-0.7-0.7v-4.2c0-0.4,0.3-0.7,0.7-0.7c0.4,0,0.7,0.3,0.7,0.7
	v3.5h0.9h1.4c0.4,0,0.7,0.3,0.7,0.7C30.2,27.7,29.9,28,29.5,28z"/>
<path fill="#8CC63F" d="M7.5,12.7L13.6,5c0.2,0.1,0.4,0.1,0.6,0.1c1.1,0,2.1-0.9,2.1-2.1c0-1.1-0.9-2.1-2.1-2.1
	c-1.1,0-2.1,0.9-2.1,2.1c0,0.5,0.2,1,0.5,1.4l-6.1,7.6L7.5,12.7z M14.2,2.1c0.5,0,1,0.4,1,1c0,0.5-0.4,1-1,1c-0.5,0-1-0.4-1-1
	C13.2,2.5,13.7,2.1,14.2,2.1z"/>
<path fill="#8CC63F" d="M19.3,5.1c0.2,0,0.5,0,0.7-0.1l5.7,7.7l0.9-0.6l-5.7-7.7c0.3-0.4,0.5-0.8,0.5-1.3c0-1.1-0.9-2.1-2.1-2.1
	c-1.1,0-2.1,0.9-2.1,2.1C17.2,4.2,18.1,5.1,19.3,5.1z M19.3,2.1c0.5,0,1,0.4,1,1c0,0.5-0.4,1-1,1c-0.5,0-1-0.4-1-1
	C18.3,2.5,18.7,2.1,19.3,2.1z"/>
<path fill="#8CC63F" d="M16.7,29c0-0.2,0-0.4,0-0.6C16.7,28.7,16.7,28.9,16.7,29L16.7,29z"/>
<path fill="#8CC63F" d="M16.7,29C16.7,29,16.7,29,16.7,29l-0.5,0L16.7,29z"/>
<path fill="#8CC63F" d="M31.4,13.5c-0.1-0.1-0.3-0.2-0.4-0.2H2.5c-0.2,0-0.3,0.1-0.4,0.2C1.9,13.7,1.9,13.8,2,14l4.8,14.6
	C6.9,28.9,7.1,29,7.3,29h8.9h0.5c0-0.1,0-0.3,0.1-0.6c0.2-1.5,1.1-5.3,4.1-7.8c2.3-2,5.5-2.7,9.4-2.3l0.1-0.5l1.3-3.8
	C31.6,13.8,31.5,13.7,31.4,13.5z M16.2,14.4v3.4h-5.4l-0.6-3.4H16.2z M3.2,14.4h5.9l0.6,3.4H4.3L3.2,14.4z M4.7,18.8h5.2l0.7,4.1
	H6.1L4.7,18.8z M7.7,27.9L6.4,24h4.4l0.7,3.9H7.7z M16.2,26.3c-0.2,0.6-0.3,1.2-0.4,1.6h-3.3L11.9,24h4.3V26.3z M16.2,22.9h-4.5
	L11,18.8h5.2V22.9z M24.4,14.4h5.9l-0.9,2.9c-1.9-0.1-3.7,0.1-5.3,0.5h-0.3L24.4,14.4z M17.3,14.4h6l-0.6,3.4h-5.4V14.4z M20.2,19.8
	c-1.1,0.9-1.9,2-2.6,3.1h-0.3v-4.1h4.3C21.1,19.1,20.6,19.4,20.2,19.8z"/>
</svg>
