<?xml version="1.0" encoding="utf-8"?>
<!-- Generator: Adobe Illustrator 17.0.0, SVG Export Plug-In . SVG Version: 6.00 Build 0)  -->
<!DOCTYPE svg PUBLIC "-//W3C//DTD SVG 1.1//EN" "http://www.w3.org/Graphics/SVG/1.1/DTD/svg11.dtd">
<svg version="1.1" id="Layer_1" xmlns="http://www.w3.org/2000/svg" xmlns:xlink="http://www.w3.org/1999/xlink" x="0px" y="0px"
	 width="30px" height="28px" viewBox="0 0 30 28" enable-background="new 0 0 30 28" xml:space="preserve">
<path opacity="0.9" fill="#004418" d="M26.785,22.947l-6.133-6.132c0.648-1.297,1.022-2.753,1.022-4.299
	c0-5.325-4.332-9.657-9.657-9.657c-5.325,0-9.657,4.332-9.657,9.657s4.332,9.657,9.657,9.657c1.628,0,3.162-0.409,4.509-1.124
	l6.08,6.085C23.158,27.687,23.892,28,24.675,28c0.005,0,0.01,0,0.015,0c0.785,0,1.524-0.322,2.081-0.879
	c0.557-0.557,0.866-1.305,0.87-2.09C27.644,24.243,27.34,23.503,26.785,22.947z M3.936,12.516c0-4.463,3.618-8.081,8.081-8.081
	s8.081,3.617,8.081,8.081c0,4.463-3.618,8.081-8.081,8.081S3.936,16.98,3.936,12.516z"/>
</svg>
