<?xml version="1.0" encoding="utf-8"?>
<!-- Generator: Adobe Illustrator 17.1.0, SVG Export Plug-In . SVG Version: 6.00 Build 0)  -->
<!DOCTYPE svg PUBLIC "-//W3C//DTD SVG 1.1//EN" "http://www.w3.org/Graphics/SVG/1.1/DTD/svg11.dtd">
<svg version="1.1" id="Layer_1" xmlns="http://www.w3.org/2000/svg" xmlns:xlink="http://www.w3.org/1999/xlink" x="0px" y="0px"
	 viewBox="0 0 640 480" enable-background="new 0 0 640 480" xml:space="preserve">
<g>
	<g>
		<path fill="#FFFFFF" d="M320,0c32.6,0,63.4,6.9,92.6,18.9c29.1,12,54.9,29.1,77.1,51.4s39.4,48,51.4,77.1s18.9,60,18.9,92.6
			s-6.9,63.4-18.9,92.6c-12,29.1-29.1,54.9-51.4,77.1s-48,39.4-77.1,51.4c-29.1,13.7-60,18.9-92.6,18.9s-63.4-6.9-92.6-18.9
			c-29.1-12-54.9-29.1-77.1-51.4s-39.4-48-51.4-77.1C85.1,303.4,80,272.6,80,240s6.9-63.4,18.9-92.6s29.1-54.9,51.4-77.1
			s48-39.4,77.1-51.4C256.6,5.1,287.4,0,320,0z M320,18.9c-30.9,0-58.3,5.1-85.7,17.1c-25.7,12-49.7,29.1-70.3,48
			c-18.9,20.6-36,44.6-46.3,70.3c-12,27.4-17.1,54.9-17.1,85.7c0,13.7,1.7,25.7,3.4,39.4c1.7,13.7,5.1,25.7,10.3,37.7
			c5.1,12,10.3,24,17.1,36c6.9,10.3,13.7,20.6,22.3,30.9c5.1-1.7,12-5.1,20.6-8.6s17.1-6.9,27.4-10.3s20.6-6.9,30.9-10.3
			s18.9-6.9,27.4-8.6l1.7-1.7c0,0,0-5.1,0-10.3c0-5.1,0-10.3-1.7-15.4c0-5.1-1.7-8.6-3.4-12s-3.4-8.6-5.1-17.1
			c-1.7-6.9-3.4-13.7-5.1-20.6c-1.7-3.4-5.1-6.9-6.9-13.7c-5.1-6.9-6.9-15.4-10.3-24c-1.7-8.6-1.7-15.4-1.7-20.6
			c0-5.1,1.7-8.6,1.7-12c0,0,1.7,0,1.7-1.7s0-8.6,0-17.1c0-8.6-1.7-18.9-3.4-27.4c0-5.1,0-13.7,1.7-25.7s6.9-22.3,15.4-32.6
			c1.7-3.4,5.1-6.9,8.6-10.3s8.6-6.9,13.7-8.6c5.1-3.4,12-5.1,18.9-8.6c6.9-1.7,15.4-3.4,24-5.1h20.6c8.6,0,17.1,1.7,24,5.1
			c6.9,1.7,13.7,5.1,18.9,8.6c5.1,1.7,10.3,5.1,13.7,8.6c3.4,3.4,6.9,6.9,10.3,10.3c8.6,10.3,13.7,22.3,15.4,32.6
			c1.7,12,3.4,20.6,1.7,25.7c-1.7,8.6-1.7,18.9-3.4,27.4c0,8.6,0,15.4,0,17.1l1.7,1.7c1.7,3.4,1.7,8.6,3.4,12c0,5.1,0,12-3.4,20.6
			c-1.7,10.3-3.4,18.9-6.9,24c-3.4,5.1-5.1,10.3-8.6,13.7c0,6.9-1.7,13.7-5.1,20.6c-1.7,6.9-5.1,12-5.1,17.1
			c-1.7,3.4-5.1,8.6-5.1,13.7c-1.7,5.1-1.7,8.6-1.7,13.7s0,8.6,0,10.3s1.7,1.7,3.4,3.4c8.6,1.7,17.1,5.1,27.4,8.6
			c10.3,3.4,20.6,6.9,29.1,8.6c10.3,3.4,18.9,6.9,27.4,10.3c8.6,3.4,15.4,5.1,20.6,8.6c8.6-8.6,15.4-18.9,22.3-30.9
			c6.9-10.3,12-22.3,15.4-34.3c5.1-12,8.6-24,10.3-37.7s3.4-25.7,3.4-39.4c0-30.9-5.1-58.3-17.1-85.7c-12-27.4-27.4-49.7-46.3-70.3
			c-20.6-18.9-44.6-36-70.3-46.3C378.3,25.7,350.9,18.9,320,18.9z"/>
	</g>
</g>
</svg>
